<svg width="52" height="52" viewBox="0 0 52 52" fill="none" xmlns="http://www.w3.org/2000/svg">
<g clip-path="url(#clip0_308_3699)">
<path d="M15.08 0H36.92C45.24 0 52 6.76 52 15.08V36.92C52 40.9195 50.4112 44.7551 47.5832 47.5832C44.7551 50.4112 40.9195 52 36.92 52H15.08C6.76 52 0 45.24 0 36.92V15.08C0 11.0805 1.58878 7.24488 4.41683 4.41683C7.24488 1.58878 11.0805 0 15.08 0M14.56 5.2C12.0776 5.2 9.69682 6.18614 7.94148 7.94148C6.18614 9.69682 5.2 12.0776 5.2 14.56V37.44C5.2 42.614 9.386 46.8 14.56 46.8H37.44C39.9224 46.8 42.3032 45.8139 44.0585 44.0585C45.8139 42.3032 46.8 39.9224 46.8 37.44V14.56C46.8 9.386 42.614 5.2 37.44 5.2H14.56ZM39.65 9.1C40.512 9.1 41.3386 9.44241 41.9481 10.0519C42.5576 10.6614 42.9 11.488 42.9 12.35C42.9 13.212 42.5576 14.0386 41.9481 14.6481C41.3386 15.2576 40.512 15.6 39.65 15.6C38.788 15.6 37.9614 15.2576 37.3519 14.6481C36.7424 14.0386 36.4 13.212 36.4 12.35C36.4 11.488 36.7424 10.6614 37.3519 10.0519C37.9614 9.44241 38.788 9.1 39.65 9.1ZM26 13C29.4478 13 32.7544 14.3696 35.1924 16.8076C37.6304 19.2456 39 22.5522 39 26C39 29.4478 37.6304 32.7544 35.1924 35.1924C32.7544 37.6304 29.4478 39 26 39C22.5522 39 19.2456 37.6304 16.8076 35.1924C14.3696 32.7544 13 29.4478 13 26C13 22.5522 14.3696 19.2456 16.8076 16.8076C19.2456 14.3696 22.5522 13 26 13M26 18.2C23.9313 18.2 21.9473 19.0218 20.4846 20.4846C19.0218 21.9473 18.2 23.9313 18.2 26C18.2 28.0687 19.0218 30.0526 20.4846 31.5154C21.9473 32.9782 23.9313 33.8 26 33.8C28.0687 33.8 30.0526 32.9782 31.5154 31.5154C32.9782 30.0526 33.8 28.0687 33.8 26C33.8 23.9313 32.9782 21.9473 31.5154 20.4846C30.0526 19.0218 28.0687 18.2 26 18.2Z" fill="white"/>
</g>
<defs>
<clipPath id="clip0_308_3699">
<rect width="52" height="52" fill="white"/>
</clipPath>
</defs>
</svg>
