<svg xmlns="http://www.w3.org/2000/svg" width="25" height="23" viewBox="0 0 25 23" fill="none">
<path d="M10.0818 3.90903L8.164 2.81584C2.49504 7.49604 0.259519 12.082 0.276481 16.782C0.350396 20.6541 2.3511 23.3685 6.09076 22.7091C8.74789 22.2405 10.9919 20.0046 11.0578 16.9258C10.938 13.3685 8.60257 11.6333 6.05484 11.5713C6.44451 8.02651 9.98337 3.92639 10.0818 3.90903ZM19.6992 8.96101C20.2047 5.49798 23.5642 1.53171 23.6627 1.51436L21.7449 0.421169C16.0759 5.10136 13.8404 9.68734 13.8574 14.3873C13.9313 18.2594 15.932 20.9738 19.6716 20.3144C22.3288 19.8459 24.5728 17.6099 24.5403 14.5484C24.5188 10.9739 22.2469 9.02297 19.6992 8.96101Z" fill="url(#paint0_radial_10_348)"/>
<defs>
<radialGradient id="paint0_radial_10_348" cx="0" cy="0" r="1" gradientUnits="userSpaceOnUse" gradientTransform="translate(5.83473 6.57416) rotate(50.9542) scale(18.2266 21.897)">
<stop stop-color="#FFA800"/>
<stop offset="1" stop-color="#FF4D00"/>
</radialGradient>
</defs>
</svg>